<?xml version="1.0" encoding="UTF-8" standalone="no"?>
<svg
   xmlns:dc="http://purl.org/dc/elements/1.1/"
   xmlns:cc="http://creativecommons.org/ns#"
   xmlns:rdf="http://www.w3.org/1999/02/22-rdf-syntax-ns#"
   xmlns:svg="http://www.w3.org/2000/svg"
   xmlns="http://www.w3.org/2000/svg"
   xmlns:xlink="http://www.w3.org/1999/xlink"
   xmlns:sodipodi="http://sodipodi.sourceforge.net/DTD/sodipodi-0.dtd"
   xmlns:inkscape="http://www.inkscape.org/namespaces/inkscape"
   width="1920"
   height="1080"
   viewBox="0 0 507.9936 285.7464"
   version="1.1"
   id="svg8"
   sodipodi:docname="background.svg"
   inkscape:version="1.0 (4035a4fb49, 2020-05-01)">
  <defs
     id="defs2">
    <filter
       style="color-interpolation-filters:sRGB;"
       inkscape:label="Drop Shadow"
       id="filter1997">
      <feFlood
         flood-opacity="0.498039"
         flood-color="rgb(0,0,0)"
         result="flood"
         id="feFlood1987" />
      <feComposite
         in="flood"
         in2="SourceGraphic"
         operator="in"
         result="composite1"
         id="feComposite1989" />
      <feGaussianBlur
         in="composite1"
         stdDeviation="1"
         result="blur"
         id="feGaussianBlur1991" />
      <feOffset
         dx="-1.5"
         dy="0"
         result="offset"
         id="feOffset1993" />
      <feComposite
         in="SourceGraphic"
         in2="offset"
         operator="over"
         result="composite2"
         id="feComposite1995" />
    </filter>
    <filter
       id="filter1997-5"
       inkscape:label="Drop Shadow"
       style="color-interpolation-filters:sRGB">
      <feFlood
         id="feFlood1987-2"
         result="flood"
         flood-color="rgb(0,0,0)"
         flood-opacity="0.498039" />
      <feComposite
         id="feComposite1989-8"
         result="composite1"
         operator="in"
         in2="SourceGraphic"
         in="flood" />
      <feGaussianBlur
         id="feGaussianBlur1991-5"
         result="blur"
         stdDeviation="1"
         in="composite1" />
      <feOffset
         id="feOffset1993-7"
         result="offset"
         dy="0"
         dx="-1.5" />
      <feComposite
         id="feComposite1995-5"
         result="composite2"
         operator="over"
         in2="offset"
         in="SourceGraphic" />
    </filter>
  </defs>
  <sodipodi:namedview
     id="base"
     pagecolor="#ffffff"
     bordercolor="#000000"
     borderopacity="1"
     inkscape:pageopacity="1"
     inkscape:pageshadow="2"
     inkscape:zoom="0.5"
     inkscape:cx="1131.2177"
     inkscape:cy="628.73078"
     inkscape:document-units="px"
     inkscape:current-layer="layer1"
     inkscape:document-rotation="0"
     showgrid="false"
     units="px"
     inkscape:showpageshadow="false"
     showborder="true"
     inkscape:pagecheckerboard="false"
     scale-x="0.26458"
     borderlayer="false"
     inkscape:snap-others="true"
     inkscape:window-width="1920"
     inkscape:window-height="1017"
     inkscape:window-x="-8"
     inkscape:window-y="-8"
     inkscape:window-maximized="1" />
  <metadata
     id="metadata5">
    <rdf:RDF>
      <cc:Work
         rdf:about="">
        <dc:format>image/svg+xml</dc:format>
        <dc:type
           rdf:resource="http://purl.org/dc/dcmitype/StillImage" />
        <dc:title />
      </cc:Work>
    </rdf:RDF>
  </metadata>
  <g
     inkscape:label="Layer 1"
     inkscape:groupmode="layer"
     id="layer1">
    <g
       transform="matrix(-0.162327,0.00922469,0.00922469,0.162327,91.197178,198.36236)"
       id="g1119">
      <path
         style="stroke-width:2.02839"
         d="m -62.357976,550.25353 c 16.656986,-10.25753 18.071205,-33.80327 15.246451,-53.16025 -2.82476,-19.35697 -7.635746,-40.57911 2.415832,-57.36113 14.446017,-24.11872 48.5855636,-23.57544 76.682442,-24.56138 20.848434,-0.73448 32.229122,-25.61559 41.51864,-43.72833 5.121515,-9.93282 17.646798,-25.82743 24.427308,-30.72472 9.764743,-7.05284 15.613953,-11.27552 21.365463,-21.85913 19.15975,-35.25701 33.13574,-58.59323 50.61734,-94.72835"
         fill="none"
         stroke="#141414"
         stroke-miterlimit="10"
         id="path1014-0-4"
         sodipodi:nodetypes="cssccssc" />
      <path
         style="fill:#02c76b;fill-opacity:1;stroke-width:2.02839"
         d="m 111.72391,361.0074 a 43.852127,43.852127 0 1 1 81.47388,-21.66122 l -22.3701,3.19665 21.01539,6.82226 a 43.686653,43.686653 0 0 1 -19.98968,26.78076 43.001503,43.001503 0 0 1 -11.16978,4.72321 43.84373,43.84373 0 0 1 -48.95971,-19.86166 z"
         fill="#02c76b"
         id="path1012-8-3" />
      <path
         style="stroke-width:2.02839"
         d="m 117.08771,358.13367 a 43.852127,43.852127 0 1 1 81.47388,-21.66122 l -22.37009,3.19664 21.0154,6.82225 a 43.686653,43.686653 0 0 1 -19.98959,26.78072 43.001503,43.001503 0 0 1 -11.1698,4.72322 43.84373,43.84373 0 0 1 -48.9598,-19.86161 z"
         fill="none"
         stroke="#141414"
         stroke-miterlimit="10"
         id="path1016-5-0" />
      <path
         style="fill:#02c76b;fill-opacity:1;stroke-width:2.02839"
         d="m 185.06374,261.30076 a 43.800971,43.800971 0 0 0 -0.99467,-42.05334 l -18.21038,11.90941 12.01001,-20.20974 a 43.846732,43.846732 0 1 0 7.19531,50.35383 z"
         fill="#02c76b"
         id="path1018-8-9" />
      <path
         style="stroke-width:2.02839"
         d="m 189.12054,254.27417 a 43.800971,43.800971 0 0 0 -0.99472,-42.05325 l -18.21032,11.90932 12.01,-20.20974 a 43.846732,43.846732 0 1 0 7.19532,50.35383 z"
         fill="none"
         stroke="#141414"
         stroke-miterlimit="10"
         id="path1020-3-8" />
      <path
         style="fill:#02c76b;fill-opacity:1;stroke-width:2.02839"
         d="m 23.444908,409.4789 a 43.846831,43.846831 0 0 1 30.959041,-81.44188 l -9.228953,15.5305 18.421132,-12.05396 a 0.76253126,0.76253126 0 0 1 0.107153,0.0526 43.84919,43.84919 0 1 1 -40.25759,77.91227 z"
         fill="#02c76b"
         id="path1022-9-5" />
      <path
         style="stroke-width:2.02839"
         d="M 27.793342,402.62069 A 43.846851,43.846851 0 0 1 58.752383,321.17882 L 49.52338,336.7094 67.944567,324.65535 a 0.76267321,0.76267321 0 0 1 0.107153,0.0526 43.849212,43.849212 0 1 1 -40.25764,77.91236 z"
         fill="none"
         stroke="#141414"
         stroke-miterlimit="10"
         id="path1024-8-6" />
      <path
         style="fill:#02c76b;fill-opacity:1;stroke-width:2.02839"
         d="M 14.383188,504.07047 A 43.828499,43.828499 0 1 1 33.870155,474.561 l -34.85740434,5.60559 29.58014534,9.01577 a 43.439127,43.439127 0 0 1 -14.209708,14.88811 z"
         fill="#02c76b"
         id="path1026-0-9" />
      <path
         style="stroke-width:2.02839"
         d="m 17.425808,498.8005 a 43.828499,43.828499 0 1 1 19.486967,-29.50948 l -34.8574043,5.6056 29.5800853,9.01587 A 43.439127,43.439127 0 0 1 17.425808,498.8005 Z"
         fill="none"
         stroke="#141414"
         stroke-miterlimit="10"
         id="path1028-86-6" />
    </g>
    <path
       id="path1012-6"
       fill="#02c76b"
       d="m 468.32385,253.5526 a 6.2934354,6.2934354 0 1 0 -2.78174,-11.77479 l 1.11176,3.04656 -2.28737,-2.19614 a 6.2696871,6.2696871 0 0 0 -2.03304,4.34384 6.1713578,6.1713578 0 0 0 0.15955,1.73313 6.2922301,6.2922301 0 0 0 5.83084,4.8474 z"
       style="fill:#02c76b;fill-opacity:1;stroke-width:0.291104" />
    <path
       id="path1014-4"
       stroke-miterlimit="10"
       stroke="#141414"
       fill="none"
       d="m 486.71516,287.17904 c -1.33418,-2.47017 0.17961,-5.49809 1.9197,-7.70122 1.74009,-2.20314 3.8609,-4.49556 3.81585,-7.30263 -0.0648,-4.03427 -4.34688,-6.41651 -7.76821,-8.55521 a 37.889049,37.889049 0 0 1 -6.97524,-5.60841 c -0.83999,-0.85751 -1.65204,-1.77448 -2.14334,-2.86971 -0.70755,-1.57728 -0.68787,-3.37173 -0.64324,-5.09986 q 0.22294,-8.63529 0.85328,-17.25365"
       style="stroke-width:0.291104" />
    <path
       id="path1016-1"
       stroke-miterlimit="10"
       stroke="#141414"
       fill="none"
       d="m 468.32385,252.67929 a 6.2934354,6.2934354 0 1 0 -2.78174,-11.77478 l 1.11176,3.04653 -2.28737,-2.19612 a 6.2696871,6.2696871 0 0 0 -2.03304,4.34383 6.1713578,6.1713578 0 0 0 0.15955,1.73314 6.2922301,6.2922301 0 0 0 5.83084,4.8474 z"
       style="stroke-width:0.291104" />
    <path
       id="path1018-2"
       fill="#02c76b"
       d="m 469.27014,233.6382 a 6.2860935,6.2860935 0 0 1 3.14127,-5.15534 l 1.40875,2.78692 -0.0425,-3.37362 a 6.2926607,6.2926607 0 1 1 -4.50757,5.74204 z"
       style="fill:#02c76b;fill-opacity:1;stroke-width:0.291104" />
    <path
       id="path1020-0"
       stroke-miterlimit="10"
       stroke="#141414"
       fill="none"
       d="m 469.27014,232.47377 a 6.2860935,6.2860935 0 0 1 3.14127,-5.15532 l 1.40875,2.78693 -0.0425,-3.37363 a 6.2926607,6.2926607 0 1 1 -4.50757,5.74202 z"
       style="stroke-width:0.291104" />
    <path
       id="path1022-0"
       fill="#02c76b"
       d="m 483.64606,264.00744 a 6.2926753,6.2926753 0 0 0 1.99622,-12.34376 l 0.0326,2.5925 -1.42454,-2.82001 a 0.10943462,0.10943462 0 0 0 -0.0171,-0.001 6.293016,6.293016 0 1 0 -0.58727,12.57232 z"
       style="fill:#02c76b;fill-opacity:1;stroke-width:0.291104" />
    <path
       id="path1024-1"
       stroke-miterlimit="10"
       stroke="#141414"
       fill="none"
       d="m 483.59773,262.84302 a 6.2926781,6.2926781 0 0 0 1.99624,-12.34375 l 0.0326,2.5925 -1.42456,-2.82001 a 0.10945499,0.10945499 0 0 0 -0.0171,-0.001 6.2930137,6.2930137 0 1 0 -0.58727,12.57231 z"
       style="stroke-width:0.291104" />
    <path
       id="path1026-1"
       fill="#02c76b"
       d="m 480.49117,275.93229 a 6.290044,6.290044 0 1 0 -0.30445,-5.06599 l 3.9301,3.19798 -4.32339,-1.00203 a 6.2341637,6.2341637 0 0 0 0.69774,2.87004 z"
       style="fill:#02c76b;fill-opacity:1;stroke-width:0.291104" />
    <path
       id="path1028-8"
       stroke-miterlimit="10"
       stroke="#141414"
       fill="none"
       d="m 480.49117,275.05899 a 6.290044,6.290044 0 1 0 -0.30445,-5.066 l 3.9301,3.19798 -4.32339,-1.00204 a 6.2341637,6.2341637 0 0 0 0.69774,2.87006 z"
       style="stroke-width:0.291104" />
    <path
       style="fill:#02c76b;fill-opacity:1;stroke-width:0.323152"
       d="m 381.42908,265.08616 a 6.9862999,6.9862999 0 1 1 3.088,-13.07111 l -1.23416,3.38194 2.53919,-2.4379 a 6.9599373,6.9599373 0 0 1 2.25685,4.82207 6.8507826,6.8507826 0 0 1 -0.1771,1.92393 6.9849619,6.9849619 0 0 1 -6.47278,5.38107 z"
       fill="#02c76b"
       id="path1012-8-8" />
    <path
       style="stroke-width:0.32305218;stroke-miterlimit:10;stroke-dasharray:none"
       d="m 361.013,302.41463 c 1.48108,-2.7421 -0.19939,-6.10336 -2.13105,-8.54905 -1.93166,-2.44569 -4.28594,-4.9905 -4.23592,-8.10661 0.0719,-4.47841 4.82542,-7.12292 8.62343,-9.49708 a 42.060377,42.060377 0 0 0 7.74317,-6.22586 c 0.93246,-0.95194 1.8339,-1.96985 2.37931,-3.18565 0.78544,-1.75092 0.76358,-3.74294 0.71405,-5.66132 q -0.2475,-9.58598 -0.94723,-19.15318"
       fill="none"
       stroke="#141414"
       stroke-miterlimit="10"
       id="path1014-0-7" />
    <path
       style="stroke-width:0.323152"
       d="m 381.42908,264.11671 a 6.9862999,6.9862999 0 1 1 3.088,-13.07111 l -1.23416,3.38194 2.53919,-2.43791 a 6.9599373,6.9599373 0 0 1 2.25685,4.82206 6.8507826,6.8507826 0 0 1 -0.1771,1.92393 6.9849619,6.9849619 0 0 1 -6.47278,5.38109 z"
       fill="none"
       stroke="#141414"
       stroke-miterlimit="10"
       id="path1016-5-7" />
    <path
       style="fill:#02c76b;fill-opacity:1;stroke-width:0.323152"
       d="m 380.3786,242.97932 a 6.9781497,6.9781497 0 0 0 -3.4871,-5.72291 l -1.56383,3.09375 0.0471,-3.74505 a 6.9854401,6.9854401 0 1 0 5.00381,6.37421 z"
       fill="#02c76b"
       id="path1018-8-4" />
    <path
       style="stroke-width:0.323152"
       d="m 380.3786,241.6867 a 6.9781497,6.9781497 0 0 0 -3.4871,-5.72289 l -1.56383,3.09372 0.0471,-3.74504 a 6.9854401,6.9854401 0 1 0 5.00381,6.37421 z"
       fill="none"
       stroke="#141414"
       stroke-miterlimit="10"
       id="path1020-3-4" />
    <path
       style="fill:#02c76b;fill-opacity:1;stroke-width:0.323152"
       d="m 364.42001,276.692 a 6.9854563,6.9854563 0 0 1 -2.21602,-13.70272 l -0.0362,2.87791 1.58139,-3.13047 a 0.12148263,0.12148263 0 0 1 0.019,-0.002 6.985832,6.985832 0 1 1 0.65192,13.95643 z"
       fill="#02c76b"
       id="path1022-9-1" />
    <path
       style="stroke-width:0.323152"
       d="m 364.47365,275.39939 a 6.9854594,6.9854594 0 0 1 -2.21601,-13.70272 l -0.0362,2.87792 1.58139,-3.13049 a 0.12150525,0.12150525 0 0 1 0.019,-0.002 6.9858388,6.9858388 0 1 1 0.65192,13.95646 z"
       fill="none"
       stroke="#141414"
       stroke-miterlimit="10"
       id="path1024-8-4" />
    <path
       id="path1014-0"
       stroke-miterlimit="10"
       stroke="#141414"
       fill="none"
       d="m 0,285.7464 c 0.47347,-3.3691 4.12671,-5.23557 7.40797,-6.13465 3.28125,-0.89908 6.99815,-1.61167 8.97162,-4.38302 2.83622,-3.98293 0.37014,-9.38489 -1.43109,-13.93062 A 45.915949,45.915949 0 0 1 12.17325,250.8127 c -0.20329,-1.44043 -0.33662,-2.91874 -0.0289,-4.3405 0.44321,-2.04752 1.7521,-3.78428 3.03763,-5.43841 q 6.42371,-8.26552 13.23276,-16.22176"
       style="stroke-width:0.352775" />
    <path
       id="path1012-8"
       fill="#02c76b"
       d="m 6.22217,239.71808 a 7.6267169,7.6267169 0 1 0 5.74828,-13.48832 l -1.10475,3.77165 -0.65353,-3.78677 a 7.5979378,7.5979378 0 0 0 -5.1056,2.77732 7.478777,7.478777 0 0 0 -1.08993,1.80573 7.6252562,7.6252562 0 0 0 2.20553,8.92039 z"
       style="fill:#02c76b;fill-opacity:1;stroke-width:0.352775" />
    <path
       id="path1016-5"
       stroke-miterlimit="10"
       stroke="#141414"
       fill="none"
       d="m 6.84982,238.86596 a 7.6267169,7.6267169 0 1 0 5.74827,-13.4883 l -1.10475,3.77163 -0.65352,-3.78676 a 7.5979378,7.5979378 0 0 0 -5.10559,2.77729 7.478777,7.478777 0 0 0 -1.08993,1.80574 7.6252562,7.6252562 0 0 0 2.20552,8.9204 z"
       style="stroke-width:0.352775" />
    <path
       id="path1018-8"
       fill="#02c76b"
       d="m 21.45796,220.967 a 7.6178196,7.6178196 0 0 1 6.77018,-2.77263 l -0.6284,3.73176 2.38323,-3.32225 a 7.6257782,7.6257782 0 1 1 -8.52498,2.36314 z"
       style="fill:#02c76b;fill-opacity:1;stroke-width:0.352775" />
    <path
       id="path1020-3"
       stroke-miterlimit="10"
       stroke="#141414"
       fill="none"
       d="m 22.29484,219.83083 a 7.6178196,7.6178196 0 0 1 6.77016,-2.77261 l -0.62839,3.73174 2.38323,-3.32225 a 7.6257782,7.6257782 0 1 1 -8.52498,2.36314 z"
       style="stroke-width:0.352775" />
    <path
       id="path1022-9"
       fill="#02c76b"
       d="m 13.65873,260.93128 a 7.6257959,7.6257959 0 0 0 10.81924,-10.60955 l -1.83141,2.55302 0.63674,-3.7754 a 0.13261864,0.13261864 0 0 0 -0.0154,-0.014 7.626206,7.626206 0 1 0 -9.6087,11.84518 z"
       style="fill:#02c76b;fill-opacity:1;stroke-width:0.352775" />
    <path
       id="path1024-8"
       stroke-miterlimit="10"
       stroke="#141414"
       fill="none"
       d="m 14.44845,259.76038 a 7.6257994,7.6257994 0 0 0 10.81922,-10.60955 l -1.83142,2.55302 0.63676,-3.77541 a 0.13264333,0.13264333 0 0 0 -0.0154,-0.014 7.6262143,7.6262143 0 1 0 -9.60874,11.84519 z"
       style="stroke-width:0.352775" />
    <path
       id="path1026-0"
       fill="#02c76b"
       d="m 2.01003,270.29939 a 7.6226072,7.6226072 0 1 0 3.34385,-5.1619 l 1.53636,5.94495 -3.49832,-4.08495 a 7.5548885,7.5548885 0 0 0 -1.38189,3.3019 z"
       style="fill:#02c76b;fill-opacity:1;stroke-width:0.352775" />
    <path
       id="path1028-86"
       stroke-miterlimit="10"
       stroke="#141414"
       fill="none"
       d="m 2.63769,269.44726 a 7.6226072,7.6226072 0 1 0 3.34385,-5.1619 l 1.53636,5.94495 -3.49834,-4.08494 a 7.5548885,7.5548885 0 0 0 -1.38187,3.30189 z"
       style="stroke-width:0.352775" />
    <path
       style="stroke-width:0.271538"
       d="m -1.9068839,72.887711 c 0.8849967,-2.464667 3.930645,-3.298473 6.5443086,-3.461579 2.6136561,-0.163108 5.5263723,-0.117372 7.4480343,-1.896424 2.761766,-2.556823 1.75027,-7.014291 1.105558,-10.722277 a 35.342441,35.342441 0 0 1 -0.447515,-8.336736 c 0.07263,-1.117365 0.203922,-2.252301 0.658715,-3.275474 0.654999,-1.473488 1.913644,-2.57708 3.141731,-3.622073 q 6.136656,-5.221673 12.515211,-10.149877"
       fill="none"
       stroke="#141414"
       stroke-miterlimit="10"
       id="path1014-0-8" />
    <path
       style="fill:#02c76b;fill-opacity:1;stroke-width:0.271538"
       d="m 9.9982429,39.176954 a 5.8704394,5.8704394 0 1 0 6.4464781,-9.263392 l -1.423831,2.669058 0.101188,-2.956112 a 5.8482875,5.8482875 0 0 0 -4.282924,1.292505 5.756567,5.756567 0 0 0 -1.1044529,1.1899 5.8693151,5.8693151 0 0 0 0.2635418,7.068041 z"
       fill="#02c76b"
       id="path1012-8-2" />
    <path
       style="stroke-width:0.271538"
       d="m 10.604822,38.633218 a 5.8704394,5.8704394 0 1 0 6.446469,-9.263387 l -1.423829,2.669045 0.101195,-2.956102 a 5.8482875,5.8482875 0 0 0 -4.282911,1.292482 5.756567,5.756567 0 0 0 -1.104454,1.189902 5.8693151,5.8693151 0 0 0 0.26353,7.06806 z"
       fill="none"
       stroke="#141414"
       stroke-miterlimit="10"
       id="path1016-5-9" />
    <path
       style="fill:#02c76b;fill-opacity:1;stroke-width:0.271538"
       d="m 24.419448,27.43505 a 5.863591,5.863591 0 0 1 5.536591,-1.028003 l -1.058608,2.71368 2.31682,-2.129962 a 5.8697169,5.8697169 0 1 1 -6.794784,0.444304 z"
       fill="#02c76b"
       id="path1018-8-44" />
    <path
       style="stroke-width:0.271538"
       d="m 25.228233,26.710053 a 5.863591,5.863591 0 0 1 5.536573,-1.027991 l -1.058596,2.713666 2.316819,-2.129961 a 5.8697169,5.8697169 0 1 1 -6.794784,0.444304 z"
       fill="none"
       stroke="#141414"
       stroke-miterlimit="10"
       id="path1020-3-43" />
    <path
       style="fill:#02c76b;fill-opacity:1;stroke-width:0.271538"
       d="m 12.276577,56.328787 a 5.8697305,5.8697305 0 0 0 9.81655,-6.29898 l -1.780377,1.636787 1.071735,-2.745258 a 0.10207927,0.10207927 0 0 0 -0.0094,-0.01297 5.8700461,5.8700461 0 1 0 -9.098028,7.419924 z"
       fill="#02c76b"
       id="path1022-9-17" />
    <path
       style="stroke-width:0.271538"
       d="m 13.055266,55.570231 a 5.8697332,5.8697332 0 0 0 9.816538,-6.298989 l -1.780386,1.636792 1.071753,-2.745271 a 0.10209827,0.10209827 0 0 0 -0.0094,-0.01297 5.8700525,5.8700525 0 1 0 -9.098059,7.419925 z"
       fill="none"
       stroke="#141414"
       stroke-miterlimit="10"
       id="path1024-8-1" />
    <path
       style="fill:#02c76b;fill-opacity:1;stroke-width:0.271538"
       d="M 2.0295826,61.56221 A 5.8672761,5.8672761 0 1 0 5.3587263,58.196519 L 5.5844728,62.917404 3.588617,59.290597 A 5.8151516,5.8151516 0 0 0 2.0295826,61.56221 Z"
       fill="#02c76b"
       id="path1026-0-7" />
    <path
       style="stroke-width:0.271538"
       d="M 2.6361723,61.018461 A 5.8672761,5.8672761 0 1 0 5.9653159,57.65277 l 0.225745,4.720892 -1.9958709,-3.62681 a 5.8151516,5.8151516 0 0 0 -1.5590177,2.271609 z"
       fill="none"
       stroke="#141414"
       stroke-miterlimit="10"
       id="path1028-86-4" />
    <path
       id="path1012-8-8-3"
       fill="#02c76b"
       d="m 505.27804,128.79256 a 6.9863,6.9863 0 1 1 -6.27287,-11.87606 l 1.29523,3.35902 0.30869,-3.5065 a 6.9599372,6.9599372 0 0 1 4.8719,2.14717 6.8507826,6.8507826 0 0 1 1.13224,1.56553 6.984962,6.984962 0 0 1 -1.33519,8.31084 z"
       style="fill:#02c76b;fill-opacity:1;stroke-width:0.323153" />
    <path
       id="path1014-0-7-5"
       stroke-miterlimit="10"
       stroke="#141414"
       fill="none"
       d="m 514.4574,170.33736 c -0.68836,-3.03955 -4.16517,-4.46565 -7.22889,-5.03694 -3.06371,-0.57128 -6.51093,-0.93921 -8.52315,-3.31906 -2.89189,-3.42026 -1.05138,-8.53904 0.24734,-12.82562 a 42.060378,42.060378 0 0 0 1.73626,-9.78282 c 0.0761,-1.33037 0.0854,-2.69002 -0.30362,-3.9645 -0.56026,-1.83542 -1.88714,-3.32136 -3.18642,-4.73362 q -6.49241,-7.05699 -13.31305,-13.80233"
       style="stroke-width:0.323052;stroke-miterlimit:10;stroke-dasharray:none" />
    <path
       id="path1016-5-7-9"
       stroke-miterlimit="10"
       stroke="#141414"
       fill="none"
       d="m 504.6403,128.0624 a 6.9863,6.9863 0 1 1 -6.27287,-11.87605 l 1.29524,3.35902 0.30868,-3.50651 a 6.9599372,6.9599372 0 0 1 4.87189,2.14716 6.8507826,6.8507826 0 0 1 1.13224,1.56553 6.984962,6.984962 0 0 1 -1.33518,8.31085 z"
       style="stroke-width:0.323153" />
    <path
       id="path1018-8-4-1"
       fill="#02c76b"
       d="m 489.9442,112.83357 a 6.9781499,6.9781499 0 0 0 -6.39108,-2.01634 l 0.85736,3.35884 -2.42815,-2.85162 a 6.9854401,6.9854401 0 1 0 7.96186,1.50913 z"
       style="fill:#02c76b;fill-opacity:1;stroke-width:0.323153" />
    <path
       id="path1020-3-4-5"
       stroke-miterlimit="10"
       stroke="#141414"
       fill="none"
       d="m 489.09387,111.86002 a 6.9781499,6.9781499 0 0 0 -6.39106,-2.01633 l 0.85734,3.35882 -2.42815,-2.85161 a 6.9854401,6.9854401 0 1 0 7.96186,1.50913 z"
       style="stroke-width:0.323153" />
    <path
       id="path1022-9-1-5"
       fill="#02c76b"
       d="m 500.10218,148.7228 a 6.9854562,6.9854562 0 0 1 -10.68315,-8.86259 l 1.86593,2.19135 -0.8683,-3.39805 a 0.12148263,0.12148263 0 0 1 0.013,-0.014 6.9858319,6.9858319 0 1 1 9.67204,10.08261 z"
       style="fill:#02c76b;fill-opacity:1;stroke-width:0.323153" />
    <path
       id="path1024-8-4-0"
       stroke-miterlimit="10"
       stroke="#141414"
       fill="none"
       d="m 499.29226,147.71397 a 6.9854594,6.9854594 0 0 1 -10.68315,-8.8626 l 1.86594,2.19136 -0.86831,-3.39807 a 0.12150525,0.12150525 0 0 1 0.013,-0.014 6.9858388,6.9858388 0 1 1 9.67205,10.08262 z"
       style="stroke-width:0.323153" />
  </g>
</svg>
