<svg width="50" height="50" viewBox="0 0 50 50" fill="none" xmlns="http://www.w3.org/2000/svg">
<path d="M31.9204 13.4103C30.7636 13.4109 29.6429 13.8126 28.7491 14.5469C27.8553 15.2812 27.2438 16.3027 27.0187 17.4373C26.7936 18.572 26.9689 19.7495 27.5146 20.7694C28.0604 21.7893 28.9429 22.5884 30.0118 23.0306C31.0807 23.4727 32.2699 23.5306 33.3767 23.1943C34.4834 22.858 35.4394 22.1484 36.0816 21.1864C36.7239 20.2243 37.0127 19.0693 36.8988 17.9182C36.785 16.767 36.2755 15.691 35.4573 14.8734C34.9932 14.4084 34.4419 14.0398 33.8349 13.7887C33.2279 13.5376 32.5772 13.409 31.9204 13.4103Z" fill="black" fill-opacity="0.35"/>
<path d="M46.8964 5.40426C46.896 5.40135 46.896 5.39838 46.8964 5.39547C46.8139 5.03347 46.6318 4.70176 46.3707 4.43775C46.1096 4.17374 45.7799 3.98795 45.4189 3.90133C42.5087 3.19137 37.9306 3.9482 32.8574 5.97945C27.7441 8.03024 22.9531 11.0576 19.7148 14.3017C18.6768 15.3342 17.7126 16.4381 16.8291 17.6054C14.6484 17.5078 12.7275 17.8183 11.1093 18.5244C5.47066 21.0058 3.86031 27.3564 3.43159 29.9638C3.36956 30.3343 3.39385 30.7141 3.50258 31.0737C3.6113 31.4332 3.80153 31.7629 4.05846 32.0369C4.31538 32.3109 4.63208 32.522 4.9839 32.6536C5.33571 32.7852 5.71316 32.8339 6.08687 32.7959H6.09956L12.3808 32.1103C12.3886 32.1904 12.3974 32.2636 12.4043 32.331C12.4849 33.0964 12.8263 33.8108 13.371 34.3545L16.4365 37.4218C16.9793 37.9674 17.6936 38.3092 18.4589 38.3896L18.6689 38.4121L17.9853 44.6855V44.6982C17.9504 45.0361 17.9863 45.3775 18.0909 45.7007C18.1954 46.0239 18.3662 46.3217 18.5924 46.5751C18.8186 46.8285 19.0952 47.0319 19.4045 47.1723C19.7138 47.3128 20.049 47.3871 20.3886 47.3906C20.5244 47.3907 20.66 47.3796 20.7939 47.3574C23.416 46.9355 29.7636 45.3447 32.2382 39.6757C32.9384 38.0683 33.248 36.1552 33.1611 33.9785C34.3337 33.0969 35.4416 32.1325 36.4765 31.0927C39.7412 27.8447 42.7783 23.0927 44.8076 18.0537C46.8281 13.038 47.5888 8.42574 46.8964 5.40426ZM36.4414 22.4824C35.6389 23.2856 34.6163 23.8328 33.5028 24.0548C32.3894 24.2767 31.2351 24.1634 30.186 23.7292C29.137 23.295 28.2403 22.5594 27.6094 21.6154C26.9785 20.6715 26.6417 19.5616 26.6417 18.4262C26.6417 17.2909 26.9785 16.181 27.6094 15.2371C28.2403 14.2931 29.137 13.5575 30.186 13.1233C31.2351 12.6891 32.3894 12.5758 33.5028 12.7977C34.6163 13.0196 35.6389 13.5668 36.4414 14.3701C36.9792 14.8998 37.4063 15.5312 37.6978 16.2276C37.9893 16.9239 38.1395 17.6713 38.1395 18.4262C38.1395 19.1811 37.9893 19.9285 37.6978 20.6249C37.4063 21.3212 36.9792 21.9526 36.4414 22.4824Z" fill="black" fill-opacity="0.35"/>
<path d="M16.0391 38.8828C15.6355 38.8318 15.2275 38.9326 14.8917 39.1662C14.2252 39.6302 13.5556 40.0889 12.8797 40.5359C11.5122 41.4405 9.87668 39.8521 10.6892 38.4124L11.9566 36.1828C12.1377 35.913 12.2386 35.5957 12.2471 35.269C12.2556 34.9424 12.1714 34.6201 12.0044 34.3409C11.8375 34.0618 11.5951 33.8375 11.3061 33.6951C11.0171 33.5527 10.6939 33.4982 10.3753 33.538C8.96869 33.7191 7.66124 34.3712 6.65882 35.3918C6.27705 35.7814 5.11612 36.9642 4.49132 41.4713C4.31348 42.7659 4.20138 44.0689 4.15546 45.3753C4.14975 45.602 4.18869 45.8276 4.27001 46.0387C4.35132 46.2499 4.47334 46.4423 4.62889 46.6047C4.78443 46.7671 4.97034 46.8961 5.17566 46.9842C5.38098 47.0723 5.60155 47.1176 5.82436 47.1176H5.86608C7.15045 47.0713 8.43163 46.9579 9.70457 46.7778C14.1345 46.1408 15.2965 44.958 15.6782 44.5694C16.6855 43.5486 17.3246 42.2115 17.4921 40.7748C17.5457 40.3278 17.4228 39.8774 17.1504 39.5226C16.8779 39.1679 16.4782 38.9377 16.0391 38.8828Z" fill="black" fill-opacity="0.38"/>
<path d="M31.9205 13.5769L31.9212 13.5769C32.5122 13.5758 33.0975 13.6915 33.6436 13.9174C34.1897 14.1433 34.6858 14.4749 35.1032 14.8932L35.1037 14.8937C35.8401 15.6296 36.2987 16.598 36.4011 17.634C36.5036 18.67 36.2437 19.7095 35.6656 20.5754C35.0876 21.4412 34.2273 22.0799 33.2312 22.3825C32.2351 22.6852 31.1649 22.6331 30.2028 22.2352C29.2408 21.8372 28.4466 21.118 27.9554 20.2001C27.4642 19.2822 27.3064 18.2224 27.509 17.2012C27.7116 16.1801 28.262 15.2607 29.0664 14.5999C29.8708 13.939 30.8794 13.5775 31.9205 13.5769Z" fill="url(#paint0_linear)" stroke="black"/>
<path d="M46.131 4.96628L46.1337 4.98341L46.1376 5.00032C46.7957 7.87235 46.0797 12.3681 44.0723 17.3512L44.0723 17.3513C42.0639 22.3385 39.0612 27.0301 35.8524 30.2226L35.8506 30.2244C34.8326 31.2473 33.7427 32.196 32.5891 33.0632L32.3795 33.2208L32.39 33.4828C32.4746 35.602 32.172 37.4367 31.5085 38.9601C30.3302 41.6595 28.2254 43.4012 26.0688 44.5252C23.9096 45.6505 21.7245 46.1419 20.443 46.3481L20.4406 46.3485C20.3346 46.3661 20.2274 46.3749 20.1199 46.375C19.8506 46.3718 19.5849 46.3128 19.3397 46.2014C19.0938 46.0898 18.8738 45.928 18.694 45.7265L18.3209 46.0595L18.694 45.7265C18.5141 45.525 18.3782 45.2882 18.2951 45.0312C18.212 44.7742 18.1834 44.5027 18.2112 44.234L18.2138 44.2084V44.197L18.8945 37.9506L18.9487 37.4526L18.4506 37.3993L18.2406 37.3768L18.2397 37.3767C17.5887 37.3083 16.9812 37.0176 16.5194 36.5535L16.5187 36.5528L13.4532 33.4854L13.4527 33.4849C12.9894 33.0225 12.699 32.4149 12.6301 31.7639C12.6259 31.7229 12.6226 31.6926 12.6193 31.6633C12.6154 31.6284 12.6117 31.5949 12.607 31.5461L12.5579 31.0428L12.0551 31.0976L5.80088 31.7802H5.78998L5.76472 31.7828C5.46755 31.8131 5.1674 31.7744 4.88764 31.6697C4.60787 31.565 4.35603 31.3972 4.15173 31.1793C3.94742 30.9614 3.79615 30.6992 3.70969 30.4133C3.62323 30.1274 3.60391 29.8254 3.65325 29.5308L3.65349 29.5293C3.863 28.2551 4.36091 26.0723 5.48847 23.9126C6.61473 21.7555 8.35419 19.6483 11.0385 18.4667C12.5724 17.7976 14.4141 17.4943 16.5352 17.5893L16.7977 17.6011L16.9563 17.3916C17.8257 16.2429 18.7745 15.1565 19.7959 14.1406L19.7972 14.1393C22.9786 10.9522 27.7084 7.95879 32.7717 5.92801C37.8175 3.90776 42.274 3.19938 45.0289 3.87146L45.0308 3.87191C45.3012 3.93679 45.5481 4.07595 45.7437 4.2737C45.9318 4.46394 46.0652 4.70111 46.1301 4.96027C46.1304 4.96227 46.1307 4.96428 46.131 4.96628ZM13.0996 33.8388L16.165 36.9062L12.1334 31.8153L12.142 31.8944C12.2372 32.6298 12.5736 33.3139 13.0996 33.8388ZM33.3291 24.0295C34.5389 23.7884 35.65 23.194 36.5221 22.3216C37.1065 21.7456 37.5707 21.0592 37.8875 20.3023C38.2047 19.5448 38.368 18.7318 38.368 17.9106C38.368 17.0894 38.2047 16.2764 37.8875 15.5189C37.5707 14.762 37.1065 14.0756 36.5221 13.4996C35.65 12.6272 34.5389 12.0328 33.3291 11.7917C32.1186 11.5504 30.8638 11.6736 29.7233 12.1457C28.5829 12.6177 27.6081 13.4174 26.9222 14.4436C26.2363 15.4698 25.8702 16.6763 25.8702 17.9106C25.8702 19.1449 26.2363 20.3514 26.9222 21.3776C27.6081 22.4038 28.5829 23.2035 29.7233 23.6755C30.8638 24.1476 32.1186 24.2708 33.3291 24.0295Z" fill="url(#paint1_linear)" stroke="black"/>
<path d="M11.7028 41.3666C12.3378 40.954 12.9665 40.5309 13.5915 40.1035C13.8555 39.923 14.1764 39.8451 14.4938 39.8845L14.4941 39.8846C14.8394 39.927 15.1537 40.1048 15.368 40.3789C15.5823 40.653 15.6789 41.001 15.6368 41.3464L15.6367 41.3472C15.4865 42.6128 14.9134 43.7906 14.0103 44.6897L14.0099 44.6901L14.0065 44.6935C13.8399 44.8602 13.5011 45.199 12.7058 45.5703C11.899 45.947 10.6156 46.36 8.55948 46.6505C7.37764 46.8148 6.18815 46.9183 4.99571 46.9606H4.96108H4.961C4.78577 46.9607 4.61231 46.9257 4.45084 46.8576C4.28937 46.7896 4.14316 46.6899 4.02083 46.5644C3.8985 46.4389 3.80253 46.2903 3.73859 46.1271C3.67479 45.9644 3.64415 45.7905 3.64847 45.6157C3.69119 44.4233 3.79537 43.2338 3.96061 42.052C4.25065 39.9967 4.6632 38.7137 5.03957 37.9069C5.41018 37.1125 5.74848 36.7733 5.91548 36.6059L5.91913 36.6022C5.91916 36.6022 5.91919 36.6022 5.91922 36.6022C6.81838 35.7029 7.99109 35.1281 9.25272 34.9685C9.5032 34.9378 9.75722 34.98 9.98435 35.0899C10.2116 35.2 10.4023 35.3732 10.5336 35.5889C10.6648 35.8046 10.7311 36.0536 10.7244 36.306C10.7177 36.5584 10.6384 36.8035 10.4959 37.0119L10.4906 37.0197L10.4859 37.0278L9.29938 39.0786L9.299 39.0793C8.4099 40.6269 10.1983 42.3443 11.7028 41.3666ZM11.7028 41.3666L11.5666 41.1569M11.7028 41.3666L11.5666 41.1569M11.5666 41.1569C10.2863 41.989 8.75503 40.528 9.51577 39.2038L14.5246 39.6364C14.1467 39.5895 13.7647 39.6823 13.4503 39.8972C12.8263 40.3239 12.1994 40.7458 11.5666 41.1569Z" fill="#DA2F3A" stroke="black" stroke-width="0.5"/>
<path d="M12.0207 40.9247C12.6558 40.5122 13.2845 40.0891 13.9095 39.6617C14.1735 39.4812 14.4944 39.4033 14.8118 39.4427L14.8121 39.4427C15.1574 39.4852 15.4717 39.663 15.686 39.9371C15.9003 40.2112 15.9969 40.5592 15.9547 40.9045L15.9546 40.9054C15.8045 42.1709 15.2314 43.3487 14.3283 44.2479L14.3279 44.2483L14.3245 44.2517C14.1579 44.4183 13.8191 44.7571 13.0238 45.1285C12.217 45.5052 10.9336 45.9182 8.87748 46.2087C7.69564 46.3729 6.50615 46.4764 5.3137 46.5188H5.27908H5.279C5.10377 46.5189 4.9303 46.4838 4.76883 46.4158C4.60736 46.3477 4.46115 46.248 4.33882 46.1226C4.21649 45.9971 4.12053 45.8484 4.05658 45.6853C3.99278 45.5225 3.96215 45.3486 3.96646 45.1739C4.00918 43.9814 4.11336 42.792 4.2786 41.6102C4.56864 39.5549 4.98119 38.2719 5.35756 37.4651C5.72817 36.6707 6.06648 36.3315 6.23347 36.1641L6.23712 36.1604C6.23717 36.1604 6.23722 36.1603 6.23726 36.1603C7.13642 35.261 8.30911 34.6863 9.57073 34.5267C9.8212 34.496 10.0752 34.5381 10.3023 34.6481C10.5296 34.7581 10.7203 34.9314 10.8516 35.1471C10.9828 35.3628 11.0491 35.6117 11.0424 35.8641C11.0357 36.1165 10.9564 36.3617 10.8139 36.5701L10.8086 36.5779L10.8039 36.586L9.61737 38.6368L9.61699 38.6374C8.7279 40.1851 10.5163 41.9025 12.0207 40.9247ZM12.0207 40.9247L11.8845 40.7151M12.0207 40.9247L11.8845 40.7151M11.8845 40.7151C10.6043 41.5471 9.07302 40.0862 9.83377 38.762L14.8426 39.1946C14.4647 39.1477 14.0827 39.2404 13.7683 39.4553C13.1443 39.8821 12.5174 40.304 11.8845 40.7151Z" fill="#F8F877" stroke="black" stroke-width="0.5"/>
<path d="M16.2222 38.1298L16.2219 38.1298C15.88 38.0866 15.534 38.1719 15.2487 38.3704C14.5812 38.835 13.9098 39.2949 13.2317 39.7434M16.2222 38.1298L13.0938 39.5348M16.2222 38.1298C16.5942 38.1763 16.9339 38.3714 17.1662 38.6739C17.3986 38.9764 17.5039 39.3614 17.458 39.744L17.4579 39.7448C17.2968 41.1267 16.6821 42.412 15.7144 43.3928L15.714 43.3932L15.7107 43.3965C15.5317 43.5787 15.1683 43.9487 14.3162 44.3536C13.4528 44.764 12.0805 45.2133 9.88329 45.5293M16.2222 38.1298L15.8923 43.5684M13.2317 39.7434L13.0938 39.5348M13.2317 39.7434C13.2317 39.7434 13.2317 39.7434 13.2317 39.7434L13.0938 39.5348M13.2317 39.7434C12.4364 40.2694 11.5572 40.0655 11.007 39.5317C10.4576 38.9987 10.2166 38.1195 10.6856 37.2885L10.686 37.2878L11.9533 35.0582L11.9579 35.0501L11.9631 35.0424C12.1177 34.8122 12.204 34.5411 12.2113 34.2615C12.2186 33.982 12.1465 33.7065 12.004 33.4682C11.8615 33.2299 11.655 33.0392 11.4097 32.9183C11.1645 32.7975 10.8907 32.7513 10.6208 32.785M13.0938 39.5348C11.7263 40.4394 10.0908 38.8511 10.9033 37.4114L12.1707 35.1817C12.3518 34.912 12.4527 34.5947 12.4612 34.268C12.4697 33.9413 12.3855 33.6191 12.2186 33.3399C12.0516 33.0607 11.8092 32.8365 11.5202 32.6941C11.2312 32.5517 10.908 32.4971 10.5894 32.537M10.6208 32.785C10.621 32.785 10.6211 32.7849 10.6213 32.7849L10.5894 32.537M10.6208 32.785C9.27059 32.9589 8.01479 33.5851 7.05139 34.5658C7.05136 34.5659 7.05132 34.5659 7.05128 34.5659L7.04757 34.5697C6.86833 34.7527 6.50507 35.1234 6.10759 35.9906C5.70432 36.8705 5.26313 38.268 4.95308 40.5044C4.77646 41.7902 4.66511 43.0843 4.61946 44.3817C4.61474 44.5753 4.64808 44.7678 4.71742 44.9478C4.7869 45.1283 4.89106 45.2924 5.02354 45.4307L4.84481 45.6019L5.02354 45.4307C5.156 45.569 5.31409 45.6787 5.48834 45.7534C5.66258 45.8282 5.84959 45.8666 6.03839 45.8665H6.03847H6.07568M10.6208 32.785C10.6207 32.785 10.6205 32.785 10.6204 32.785L10.5894 32.537M10.5894 32.537C9.1828 32.718 7.87535 33.3702 6.87293 34.3908L6.87229 34.3914C6.48987 34.7817 5.32988 35.9657 4.70543 40.4702C4.52759 41.7648 4.41549 43.0679 4.36957 44.3742C4.36386 44.6009 4.40281 44.8265 4.48412 45.0377C4.56543 45.2488 4.68745 45.4413 4.843 45.6037C4.99854 45.7661 5.18446 45.8951 5.38978 45.9832C5.5951 46.0713 5.81566 46.1166 6.03847 46.1165H6.0802C7.36456 46.0702 8.64574 45.9568 9.91868 45.7768M9.91868 45.7768C14.3486 45.1397 15.5106 43.957 15.8923 43.5684M9.91868 45.7768L9.88367 45.5292C9.88354 45.5292 9.88342 45.5293 9.88329 45.5293M9.91868 45.7768L6.07568 45.8665M15.8923 43.5684C16.8996 42.5476 17.5388 41.2105 17.7062 39.7737L15.8923 43.5684ZM9.88329 45.5293C8.62058 45.7079 7.34971 45.8204 6.07568 45.8665M9.88329 45.5293L6.07568 45.8665" fill="#DA2F3A" stroke="black" stroke-width="0.5"/>
<defs>
<linearGradient id="paint0_linear" x1="36.916" y1="13.0838" x2="26.9298" y2="23.0703" gradientUnits="userSpaceOnUse">
<stop stop-color="#5EC262"/>
<stop offset="0.526042" stop-color="#02C76B"/>
</linearGradient>
<linearGradient id="paint1_linear" x1="46.8446" y1="3.15533" x2="3.15531" y2="46.8447" gradientUnits="userSpaceOnUse">
<stop stop-color="#05AC5E"/>
<stop offset="0.348958" stop-color="#02C76B"/>
<stop offset="0.567708" stop-color="#02C56A"/>
<stop offset="1" stop-color="#2B865B"/>
</linearGradient>
</defs>
</svg>
